<svg width="24" height="24" viewBox="0 0 24 24" fill="none" xmlns="http://www.w3.org/2000/svg">
<path d="M2 8.40093C1.99988 7.68329 2.1428 6.97284 2.4204 6.31107C2.69801 5.64931 3.10474 5.04952 3.61681 4.54675C4.12889 4.04399 4.73604 3.64833 5.40279 3.38292C6.06953 3.1175 6.78249 2.98764 7.5 3.00093C8.34896 2.99642 9.18919 3.1724 9.96499 3.5172C10.7408 3.862 11.4345 4.36775 12 5.00093C12.5655 4.36775 13.2592 3.862 14.035 3.5172C14.8108 3.1724 15.651 2.99642 16.5 3.00093C17.2175 2.98764 17.9305 3.1175 18.5972 3.38292C19.264 3.64833 19.8711 4.04399 20.3832 4.54675C20.8953 5.04952 21.302 5.64931 21.5796 6.31107C21.8572 6.97284 22.0001 7.68329 22 8.40093C22 13.7569 15.621 17.8009 12 21.0009C8.387 17.7739 2 13.7609 2 8.40093Z" fill="#2CF19C"/>
</svg>
