<svg width="184" height="46" viewBox="0 0 184 46" fill="none" xmlns="http://www.w3.org/2000/svg">
<g filter="url(#filter0_d_4155_10240)">
<path d="M39.6415 17.0133C40.9301 16.9792 42.2068 16.9123 43.479 17.2926C44.0742 17.4723 44.7513 17.3817 45.3837 17.4694C45.8926 17.5392 46.4253 17.857 46.888 17.7768C47.7332 17.6283 48.3998 18.0917 49.1572 18.2016C49.501 18.2522 49.8611 18.221 50.1914 18.3101C50.5217 18.3992 50.7702 18.6161 51.0753 18.723C51.419 18.8433 51.7836 18.9013 52.1392 18.9904C52.221 19.0097 52.3549 19.0231 52.3713 19.0706C52.5201 19.5028 52.779 19.6544 53.2165 19.4583C53.2388 19.4479 53.3355 19.5504 53.3653 19.6157C53.4933 19.8816 53.6049 20.1549 53.7313 20.4208C53.9992 20.9808 54.3191 21.5215 54.5334 22.1008C54.7655 22.7232 54.2968 23.1792 53.9263 23.5401C53.3623 24.0912 52.724 24.5992 51.8728 24.6779C51.8358 24.6781 51.7993 24.6862 51.7657 24.7017C50.5336 25.4593 49.068 25.3315 47.7481 25.7578C47.3791 25.8766 46.9461 25.7846 46.5488 25.8351C46.0547 25.8989 45.5682 26.0133 45.0756 26.098C44.9538 26.1314 44.8258 26.1355 44.7022 26.1099C43.7826 25.789 42.8764 26.1099 41.9657 26.1455C41.7169 26.1487 41.4682 26.1333 41.2217 26.0995C40.1548 25.9777 39.0894 25.8261 38.0195 25.7311C37.155 25.6553 36.2845 25.6301 35.4155 25.6123C35.0882 25.6123 34.6983 25.6212 34.6254 26.0579C34.5525 26.4946 34.8263 26.7308 35.2489 26.8095C36.4512 27.0333 37.652 27.2625 38.8513 27.4972C39.1593 27.5581 39.4555 27.6799 39.765 27.726C40.4822 27.8329 41.2336 27.8151 41.9151 28.023C42.738 28.2845 43.482 28.7301 44.2706 29.0806C44.4849 29.1787 44.6962 29.3465 44.9149 29.3584C45.534 29.3926 45.7973 30.2214 46.5071 30.0343C46.5711 30.0164 46.7467 30.1724 46.763 30.2645C46.8583 30.8438 46.9907 31.4305 46.9684 32.0083C46.9475 32.1787 46.893 32.3432 46.8079 32.4924C46.7228 32.6416 46.609 32.7724 46.4729 32.8773C45.6232 33.5041 44.7602 34.1369 43.8242 34.6137C43.0698 34.9969 42.2008 35.1588 41.3824 35.4173C41.2931 35.4455 41.1696 35.4396 41.119 35.499C40.506 36.2046 39.6638 35.9743 38.8975 36.056C38.8053 36.066 38.717 36.0981 38.64 36.1496C38.0597 36.5551 37.405 36.5105 36.7413 36.512C36.3262 36.512 35.914 36.6606 35.4959 36.7111C35.0495 36.7675 34.5882 36.8136 34.1329 36.8269C33.4305 36.8448 32.7044 36.6457 32.0631 37.1092C32.008 37.1493 31.9009 37.1909 31.8592 37.1656C31.084 36.6977 30.2135 36.9265 29.3906 36.8299C28.657 36.7438 27.8684 36.867 27.1899 36.6398C26.3997 36.3754 25.5248 36.8462 24.8165 36.2655C24.8016 36.2536 24.7808 36.2328 24.7704 36.2357C24.0264 36.4467 23.4312 35.8035 22.6663 35.8897C22.2512 35.9372 21.7973 35.603 21.3539 35.4633C21.0563 35.3698 20.7498 35.3386 20.4611 35.2391C19.8778 35.0415 19.296 34.8365 18.7306 34.5944C17.8452 34.2171 16.9732 33.8071 16.0953 33.4061C16.0611 33.3897 16.009 33.3808 15.9986 33.3556C15.8215 32.9204 15.4183 32.806 15.0314 32.6619C14.5989 32.5228 14.2363 32.2235 14.0181 31.8256C13.9705 31.7306 13.7815 31.7083 13.6535 31.6578C13.5255 31.6073 13.3559 31.6058 13.3306 31.533C13.2864 31.3809 13.1876 31.2505 13.0531 31.1666C12.9186 31.0828 12.7578 31.0514 12.6015 31.0785C12.5271 31.0731 12.4577 31.039 12.408 30.9834C11.85 30.4056 11.3069 29.8159 10.74 29.2485C10.535 29.075 10.3188 28.9152 10.0927 28.7702C9.94314 28.6754 9.80997 28.557 9.6984 28.4196C8.45542 26.5332 7.21988 24.6423 5.99179 22.7469C5.94119 22.6697 5.85935 22.5984 5.84299 22.5182C5.66145 21.8305 5.52604 21.1279 5.30433 20.452C5.16892 20.042 4.89662 19.6796 4.70913 19.286C4.60201 19.0817 4.52675 18.8623 4.48593 18.6354C4.42938 18.2403 4.48593 17.8155 4.38028 17.4471C4.05292 16.3509 4.01572 15.2442 4.00084 14.1094C3.98149 12.5423 4.29844 11.054 4.78948 9.59382C5.04542 8.82439 5.26415 7.94356 5.78942 7.38802C6.55425 6.58146 6.78638 5.32482 7.94256 4.87029C8.06217 4.81567 8.16232 4.72606 8.22974 4.61332C9.09427 3.20963 10.6254 2.6942 11.9497 1.92625C12.4066 1.66037 13.0047 1.57867 13.4928 1.25634C13.6818 1.13157 14.0196 1.24743 14.2859 1.22366C14.8097 1.17613 15.448 1.27268 15.8275 1.00828C16.3825 0.620594 16.7307 0.960749 17.1771 1.06027C18.116 1.26822 19.1368 1.28159 19.9835 1.6767C20.6799 2.00349 21.3911 1.8802 22.0503 2.13123C22.211 2.21764 22.3609 2.32285 22.4967 2.44465C22.9064 2.73183 23.3171 3.01702 23.7288 3.30024C23.8285 3.36856 23.9371 3.42352 24.0398 3.48888C24.2853 3.64633 24.5412 3.78596 24.7689 3.97163C24.9007 4.08498 25.0106 4.22139 25.0933 4.37417C25.2956 4.72027 25.4102 5.1436 25.9682 5.06785C26.062 5.05596 26.2093 5.25055 26.2896 5.37681C26.8253 6.21308 27.3684 7.0449 27.8669 7.90197C28.1972 8.47236 28.4309 9.09919 28.7597 9.67404C29.31 10.6723 29.624 11.783 29.6778 12.9211C29.7047 13.3912 29.6437 13.8622 29.4977 14.3099C29.1868 15.2517 28.8043 16.1875 27.733 16.5217C27.3206 16.6337 26.8978 16.7034 26.4712 16.7296C25.9102 16.7846 25.3447 16.8069 24.7808 16.8321C24.6601 16.8237 24.5405 16.8038 24.4237 16.7727C24.2927 16.7534 24.1588 16.7371 24.0264 16.7252C23.93 16.7263 23.8336 16.7219 23.7377 16.7118C23.6454 15.9067 22.8895 16.1622 22.4565 15.9156C22.0235 15.6691 21.5459 15.5161 21.1084 15.2814C20.5519 14.9843 20.0177 14.6337 19.4716 14.3129C19.0514 14.0478 18.6173 13.8053 18.1711 13.5865C17.8378 13.438 16.9554 12.3225 16.9212 11.8902C16.884 11.4327 17.3795 10.7183 17.9404 10.5534C18.2812 10.4539 18.6651 10.5162 19.0282 10.4821C19.5147 10.4346 19.671 10.7539 19.8004 11.1238C19.8183 11.1774 19.8561 11.222 19.9061 11.2485C20.2974 11.4164 20.6918 11.5738 21.0846 11.7372C21.1694 11.7714 21.287 11.7922 21.3271 11.8576C21.8078 12.6508 22.7497 12.621 23.4207 13.0548C23.8667 13.3675 24.3781 13.5747 24.9162 13.6608C25.1855 13.6965 25.4697 13.6192 25.7465 13.5851C25.7971 13.5851 25.8417 13.5286 25.8953 13.5063C26.6304 13.1766 26.6319 13.1766 26.4593 12.3433C26.4593 12.3076 26.4265 12.2646 26.4384 12.2348C26.9012 11.0465 26.0114 10.3142 25.4742 9.46311C25.0709 8.82439 24.687 8.17082 24.3016 7.52022C23.8865 6.82506 23.1842 6.5369 22.4952 6.22645C22.4283 6.19674 22.3256 6.17446 22.3077 6.12396C22.0607 5.43622 21.406 5.41097 20.8584 5.2045C20.7513 5.16291 20.6813 5.02774 20.595 4.93565C20.534 4.87178 20.4552 4.74403 20.4165 4.75592C19.5787 4.99506 18.9969 4.20632 18.2157 4.21524C17.9821 4.21524 17.7485 4.11126 17.5119 4.08749C16.5849 3.99391 15.6727 4.14394 14.7636 4.29396C14.5909 4.32218 14.4392 4.45884 14.2695 4.52568C13.9868 4.63708 13.6981 4.73363 13.4125 4.83613C13.2353 4.87592 13.0638 4.93781 12.9021 5.02032C12.0551 5.57566 11.2611 6.20763 10.5302 6.90824C9.24456 8.19607 8.62704 9.70077 8.1598 11.3867C7.92768 12.2259 7.65835 13.0325 7.70001 13.9044C7.74763 14.9219 7.54228 15.9543 7.99761 16.9495C8.15534 17.2881 8.06011 17.7427 8.08243 18.1378C8.08243 18.2492 8.05862 18.3933 8.11665 18.4646C8.88893 19.4152 8.82345 20.6926 9.37253 21.7087C9.94243 22.7677 10.6165 23.7719 11.2712 24.7834C11.551 25.2157 11.7771 25.6746 12.4006 25.8232C12.6982 25.8974 12.8366 26.4723 13.097 26.7783C13.2532 26.9595 13.5151 27.0457 13.713 27.1957C13.861 27.3074 13.9945 27.4372 14.1103 27.5819C14.3514 27.879 14.4079 28.4479 15.0269 28.1849C15.0603 28.1821 15.094 28.1862 15.1257 28.197C15.1574 28.2077 15.1866 28.2248 15.2114 28.2473C15.2025 29.0093 16.1891 28.8415 16.3468 29.4624C16.3602 29.5173 16.5789 29.5084 16.6935 29.553C16.8081 29.5975 17.0119 29.6599 17.0253 29.7387C17.1042 30.2199 17.4628 30.3462 17.8393 30.3417C18.4642 30.3343 18.8809 30.6596 19.3273 31.0309C19.5177 31.1914 19.8094 31.2374 20.0594 31.328C21.0652 31.6667 21.8866 32.4955 23.0354 32.4554C23.4098 32.441 23.78 32.5394 24.0978 32.7377C24.51 32.9753 25.0814 32.9322 25.5858 33.0347C26.6155 33.2353 27.6422 33.4477 28.6689 33.6556C28.779 33.6779 28.9204 33.7537 28.9918 33.7121C29.8534 33.2041 30.6212 33.8755 31.4381 33.8918C31.5676 33.8918 31.7565 33.9765 31.8146 33.9185C32.2491 33.4833 32.6359 33.8487 33.0719 33.8918C33.9845 34.0018 34.9095 33.9434 35.8009 33.7195C36.2875 33.5873 36.8321 33.6943 37.341 33.6185C38.0686 33.5101 38.7859 33.3333 39.5075 33.1862C39.573 33.1714 39.6489 33.1343 39.7069 33.1521C40.6369 33.4298 41.5015 33.106 42.3526 32.8194C43.0639 32.5802 43.2811 31.3548 42.6249 31.0012C41.7723 30.5408 40.9598 29.8129 39.8289 30.0699C39.5983 30.1204 39.3052 29.9214 39.0492 29.8263C38.7933 29.7312 38.5909 29.5753 38.3469 29.5173C37.7874 29.3837 37.2011 29.345 36.658 29.1698C36.1714 29.0138 35.731 28.7241 35.2638 28.4984C34.5629 28.1671 33.8397 27.879 33.1642 27.5046C32.9097 27.365 32.7535 27.0397 32.569 26.7917C32.4782 26.6743 32.4202 26.5376 32.3354 26.4129C31.7134 25.4726 32.1464 24.672 33.2713 24.5145C33.9513 24.4195 34.6001 24.1209 35.2712 23.9382C35.5853 23.854 35.9066 23.7993 36.231 23.7748C37.0226 23.7169 37.8172 23.6827 38.6118 23.6382C39.6891 23.5788 40.7664 23.4985 41.8467 23.4659C42.927 23.4332 44.037 23.4332 45.1322 23.457C45.4729 23.457 45.8435 23.1287 46.1619 23.5149C46.6157 22.998 47.1083 23.4466 47.5859 23.4421C48.2208 23.4194 48.8541 23.3634 49.4831 23.2743C50.0396 23.2074 50.8655 22.4098 50.989 21.8512C51.0079 21.7575 51.007 21.6608 50.9863 21.5674C50.9655 21.474 50.9254 21.3859 50.8685 21.309C50.8116 21.232 50.7391 21.1678 50.6558 21.1205C50.5725 21.0732 50.4802 21.0438 50.3848 21.0343C50.2212 21.0179 50.0738 20.8857 49.9161 20.8055C48.7763 20.2634 47.5755 20.1386 46.333 20.2797C46.1691 20.3117 45.9992 20.2909 45.8479 20.2203C45.2036 19.8044 44.5444 19.9232 43.8391 20.0168C43.4061 20.0703 42.9463 19.7672 42.4761 19.7049C41.7232 19.6024 40.9732 19.2726 40.1935 19.6039C40.1132 19.638 39.9763 19.5385 39.8661 19.4984C39.756 19.4583 39.5849 19.335 39.4748 19.3647C39.0832 19.4653 38.6682 19.4177 38.3097 19.231C38.0121 19.1003 37.6178 19.179 37.4243 18.7958C37.3931 18.7334 37.2666 18.6948 37.1818 18.6903C36.5003 18.6606 35.7816 18.5418 35.3054 18.1096C34.7787 17.6342 34.4454 16.9361 34.0659 16.3122C34.0153 16.2291 34.1478 15.9468 34.2698 15.8666C34.8456 15.4656 35.4155 15.0303 36.0554 14.7422C36.6952 14.454 37.3812 14.3292 38.0508 14.1406C38.646 13.9727 39.2412 13.796 39.8468 13.6593C40.7947 13.444 41.744 13.2345 42.7008 13.0652C43.604 12.9077 44.5191 12.8141 45.4283 12.6879C45.5217 12.688 45.6128 12.6589 45.6887 12.6047C46.2303 12.0106 46.952 12.3492 47.5785 12.2111C48.0948 12.0967 48.7064 12.3017 49.1304 11.8056C49.187 11.7402 49.3849 11.6927 49.428 11.7328C49.8149 12.0967 50.2033 11.8189 50.5872 11.7565C51.0991 11.6734 51.6169 11.608 52.1169 11.4743C52.5707 11.3555 53.0097 11.1639 53.4486 11.0035C53.5513 10.9663 53.6718 10.8683 53.7462 10.895C54.3027 11.0807 54.6911 10.7034 54.9366 10.3855C55.2238 10.0261 55.3503 9.5047 55.4277 9.03532C55.453 8.88678 55.1078 8.661 54.9232 8.47978C54.8965 8.45453 54.7908 8.50652 54.7655 8.47978C54.2209 7.90345 53.4858 8.16488 52.843 8.02228C51.8535 7.80096 50.8997 7.99258 49.931 8.09061C49.5649 8.12626 49.187 8.09061 48.8224 8.10695C48.7123 8.10695 48.6126 8.23172 48.498 8.26886C48.3751 8.31347 48.245 8.33512 48.1141 8.33273C47.8835 8.32085 47.6529 8.23915 47.4267 8.25549C46.1887 8.33867 44.9521 8.4377 43.7171 8.55257C43.4444 8.59689 43.1746 8.6574 42.9091 8.73379C42.4225 8.83479 41.9107 9.07097 41.4538 8.99373C40.6726 8.86301 39.8394 9.29081 39.1058 8.75458C38.9466 8.63724 38.7174 8.6209 38.5418 8.52286C38.3023 8.38918 37.8752 8.1931 37.8931 8.07724C37.9526 7.66579 38.0716 7.02559 38.3395 6.9231C39.4049 6.52056 40.5253 6.1195 41.6473 6.04523C42.5326 5.9873 43.415 5.94126 44.3019 5.83431C45.4655 5.69468 46.6559 5.76301 47.8121 5.58773C48.873 5.42731 49.8953 5.64863 50.9369 5.65309C51.7032 5.65309 52.4725 5.52832 53.2358 5.55654C53.7626 5.57585 54.2849 5.75855 54.8087 5.87293C54.8771 5.88778 54.9411 5.95017 55.0051 5.94868C55.7952 5.94126 56.3324 6.3943 56.9663 6.80278C57.5481 7.17513 58.0408 7.67055 58.4096 8.254C59.0986 9.29378 59.0971 10.2578 58.112 11.299C57.7847 11.6437 57.4826 12.0165 57.127 12.3284C56.746 12.6611 56.3681 13.0711 55.7625 12.8869C55.7066 12.8839 55.651 12.8979 55.6033 12.927C54.6881 13.3281 53.779 13.7425 52.8564 14.1272C52.663 14.2074 52.4219 14.1659 52.2076 14.2074C51.1571 14.408 50.0783 14.5238 49.0709 14.8551C48.3924 15.0794 47.7317 15.0705 47.0636 15.1388C46.3092 15.2175 45.5682 15.4106 44.8212 15.5487C44.6039 15.5953 44.3837 15.6266 44.162 15.6423C42.1294 15.7315 40.0983 15.8102 38.0612 15.8963C37.8958 15.906 37.7315 15.9299 37.5702 15.9676C37.2309 16.0404 36.9021 16.238 37.0151 16.5855C37.0806 16.7861 37.469 16.9747 37.7279 16.997C38.338 17.052 38.9912 17.0133 39.6415 17.0133Z" fill="url(#paint0_linear_4155_10240)"/>
<path d="M148.059 23.0918C145.905 23.0918 143.752 23.0684 141.599 23.1109C141.174 23.1109 140.735 23.3766 140.303 23.5211C140.516 23.9228 140.644 24.4032 140.942 24.7178C142.969 26.8263 146.025 26.8688 148.108 24.807C148.661 24.2608 149.261 24.1991 149.933 24.3139C151.346 24.5605 152.752 24.8262 154.159 25.094C154.816 25.2194 154.95 25.5467 154.584 26.1907C152.823 29.3521 150.158 31.2579 146.591 31.9084C143.71 32.4325 140.739 31.8194 138.303 30.1982C135.866 28.5769 134.155 26.0741 133.529 23.2172C132.24 17.3019 136.035 11.4121 141.971 10.039C148.052 8.62981 153.854 12.1284 155.531 17.8396C155.833 18.8726 156.201 19.9226 156.261 20.979C156.331 22.2203 155.776 23.2065 154.184 23.1173C152.144 23.0004 150.093 23.0896 148.046 23.0896L148.059 23.0918ZM144.884 18.5177C145.999 18.5177 147.114 18.5389 148.229 18.5028C148.544 18.4922 149.059 18.3838 149.118 18.1988C149.171 18.0179 149.184 17.828 149.158 17.6415C149.132 17.455 149.066 17.2762 148.965 17.117C148.585 16.5799 148.096 16.1282 147.531 15.7906C145.942 14.9596 144.263 14.9574 142.614 15.644C141.799 15.9819 141.057 16.4538 140.669 17.3167C140.314 18.1117 140.514 18.4858 141.382 18.5049C142.546 18.5389 143.714 18.5177 144.882 18.5177H144.884Z" fill="url(#paint1_linear_4155_10240)"/>
<path d="M171.78 22.9343C169.759 22.9343 167.739 22.9343 165.719 22.9343C165.426 22.9283 165.134 22.9383 164.842 22.9641C163.914 23.064 163.768 23.3998 164.314 24.1437C165.038 25.1075 166.085 25.7783 167.264 26.0328C168.443 26.2874 169.674 26.1087 170.731 25.5296C171.157 25.314 171.546 25.0328 171.885 24.6964C172.427 24.1076 173.059 24.0375 173.776 24.1714C175.131 24.4236 176.486 24.6737 177.842 24.9217C178.546 25.0513 178.706 25.4276 178.293 26.1481C176.495 29.2938 173.797 31.143 170.225 31.7786C164.865 32.735 159.395 29.5319 157.695 24.3627C155.655 18.1605 158.921 11.9646 164.893 10.0941C171.914 7.89425 178.936 12.4981 179.665 19.7184C179.725 20.4009 179.725 21.0872 179.665 21.7696C179.595 22.7069 179.361 22.9152 178.406 22.9216C176.2 22.9386 173.993 22.9216 171.787 22.9216L171.78 22.9343ZM168.697 18.3687C169.891 18.3687 171.087 18.3921 172.28 18.3687C172.995 18.3496 173.274 17.9224 172.934 17.3187C172.666 16.8064 172.297 16.3537 171.848 15.9882C170.402 14.9105 168.738 14.8723 167.061 15.257C166.059 15.4674 165.181 16.0667 164.621 16.9234C164.429 17.221 164.291 17.7077 164.408 17.9989C164.495 18.2115 165.019 18.356 165.355 18.3687C166.455 18.3964 167.572 18.3687 168.697 18.3687Z" fill="url(#paint2_linear_4155_10240)"/>
<path d="M97.302 9.76029C102.57 9.61789 106.91 13.1611 108.325 17.7373C108.566 18.5174 108.728 19.2634 108.894 20.0626C109 20.594 109 21.2316 108.894 21.763C108.521 23.1106 108.289 24.3051 107.713 25.5719C106.658 27.8546 104.865 29.7161 102.622 30.8567C100.379 31.9972 97.817 32.3503 95.3488 31.8592C90.7637 30.9388 87.7722 28.1714 86.4892 23.693C84.9892 18.4536 87.9339 12.6404 93.019 10.5807C94.4424 10.0154 95.8892 9.63489 97.302 9.76029ZM97.4211 16.0157C94.8488 15.7627 92.3658 18.0583 92.3913 20.8576C92.419 23.7886 94.6488 25.8334 97.4254 25.8525C98.7542 25.8588 100.032 25.3411 100.981 24.4118C101.93 23.4825 102.473 22.2168 102.493 20.8894C102.513 18.494 100.338 15.7393 97.4211 16.0157Z" fill="url(#paint3_linear_4155_10240)"/>
<path d="M121.134 9.75625C122.62 9.72149 124.098 9.98529 125.481 10.532C126.863 11.0787 128.122 11.8972 129.181 12.9389C130.241 13.9806 131.081 15.2243 131.65 16.5963C132.22 17.9682 132.508 19.4405 132.497 20.9258C132.468 27.0791 127.604 32.0507 121.146 32.1059C118.16 32.1173 115.292 30.945 113.17 28.8463C111.048 26.7476 109.846 23.8938 109.827 20.9109C109.806 14.7257 115.061 9.59259 121.134 9.75625ZM121.151 25.857C124.031 25.823 126.183 23.6677 126.21 20.8833C126.238 18.0989 123.783 16.0137 121.28 15.9606C119.945 15.9336 118.653 16.4339 117.685 17.3527C116.716 18.2715 116.15 19.5348 116.108 20.8684C116.07 23.572 118.393 25.8527 121.151 25.857Z" fill="url(#paint4_linear_4155_10240)"/>
<path d="M76.1635 32.1163C71.0337 32.1163 66.3763 28.5412 65.172 23.5739C64.8204 22.1405 64.7565 20.6517 64.984 19.1934C65.2114 17.7352 65.7257 16.3364 66.4972 15.0778C67.2687 13.8192 68.282 12.7257 69.4788 11.8605C70.6756 10.9952 72.032 10.3753 73.4699 10.0365C78.3976 8.88451 83.0125 10.9803 85.3635 14.3832C85.9231 15.193 85.8997 15.2483 85.0274 15.7584C83.9508 16.396 82.8614 17.0018 81.8103 17.6714C81.1401 18.0965 80.6763 18.0752 80.1082 17.4333C78.3827 15.4459 76.0359 15.0379 73.804 16.4258C70.9614 18.2006 70.4444 21.2316 72.021 23.6525C73.7018 26.2393 77.1103 26.8408 79.4678 25.0235C79.637 24.897 79.7938 24.7546 79.9359 24.5984C80.8976 23.5356 80.8848 23.5356 82.0891 24.271C83.0635 24.8641 84.0721 25.3997 85.0529 25.9842C85.755 26.4093 85.8359 26.7961 85.3997 27.4104C83.3784 30.248 79.7018 32.1227 76.1635 32.1163Z" fill="url(#paint5_linear_4155_10240)"/>
</g>
<defs>
<filter id="filter0_d_4155_10240" x="0" y="0.827148" width="188" height="44.3462" filterUnits="userSpaceOnUse" color-interpolation-filters="sRGB">
<feFlood flood-opacity="0" result="BackgroundImageFix"/>
<feColorMatrix in="SourceAlpha" type="matrix" values="0 0 0 0 0 0 0 0 0 0 0 0 0 0 0 0 0 0 127 0" result="hardAlpha"/>
<feOffset dy="4"/>
<feGaussianBlur stdDeviation="2"/>
<feComposite in2="hardAlpha" operator="out"/>
<feColorMatrix type="matrix" values="0 0 0 0 0 0 0 0 0 0 0 0 0 0 0 0 0 0 0.25 0"/>
<feBlend mode="normal" in2="BackgroundImageFix" result="effect1_dropShadow_4155_10240"/>
<feBlend mode="normal" in="SourceGraphic" in2="effect1_dropShadow_4155_10240" result="shape"/>
</filter>
<linearGradient id="paint0_linear_4155_10240" x1="15.5701" y1="26.0772" x2="87.213" y2="16.5378" gradientUnits="userSpaceOnUse">
<stop stop-color="#43EA80"/>
<stop offset="1" stop-color="#39F7CD"/>
</linearGradient>
<linearGradient id="paint1_linear_4155_10240" x1="144.772" y1="9.72705" x2="144.772" y2="32.0912" gradientUnits="userSpaceOnUse">
<stop stop-color="#43EA80"/>
<stop offset="1" stop-color="#39F7CD"/>
</linearGradient>
<linearGradient id="paint2_linear_4155_10240" x1="168.399" y1="9.5415" x2="168.399" y2="31.947" gradientUnits="userSpaceOnUse">
<stop stop-color="#43EA80"/>
<stop offset="1" stop-color="#39F7CD"/>
</linearGradient>
<linearGradient id="paint3_linear_4155_10240" x1="97.5355" y1="9.73633" x2="97.5355" y2="32.0749" gradientUnits="userSpaceOnUse">
<stop stop-color="#43EA80"/>
<stop offset="1" stop-color="#39F7CD"/>
</linearGradient>
<linearGradient id="paint4_linear_4155_10240" x1="121.162" y1="9.75244" x2="121.162" y2="32.106" gradientUnits="userSpaceOnUse">
<stop stop-color="#43EA80"/>
<stop offset="1" stop-color="#39F7CD"/>
</linearGradient>
<linearGradient id="paint5_linear_4155_10240" x1="75.2958" y1="9.71826" x2="75.2958" y2="32.1163" gradientUnits="userSpaceOnUse">
<stop stop-color="#43EA80"/>
<stop offset="1" stop-color="#39F7CD"/>
</linearGradient>
</defs>
</svg>
